<?xml version="1.0" encoding="iso-8859-1"?>
<!-- Generator: Adobe Illustrator 19.0.0, SVG Export Plug-In . SVG Version: 6.00 Build 0)  -->
<svg version="1.1" id="Capa_1" xmlns="http://www.w3.org/2000/svg" xmlns:xlink="http://www.w3.org/1999/xlink" x="0px" y="0px"
	 viewBox="0 0 512 512" style="enable-background:new 0 0 512 512;" xml:space="preserve">
<g>
	<path style="fill:#E6E9ED;" d="M427.846,259.993l-7.996-0.476c-0.305,5.143-0.766,10.68-1.391,16.475h9.387
		c25.835-9.356,52.7-11.676,60.299-5.279c4.562,3.92,4.319,11.597,3.28,17.353c-5.443,30.067-42.062,72.217-95.567,95.489h-11.105
		c-3.24,5.373-6.724,10.645-10.566,15.752l5.678,4.64C521.336,360.603,557.644,213.05,427.846,259.993z"/>
	<path style="fill:#E6E9ED;" d="M27.99,483.917c-13.277,0-23.992-10.715-23.992-23.991h167.94H307.89h167.939
		c0,13.276-10.715,23.991-23.991,23.991H27.99z"/>
</g>
<path style="fill:#FFFFFF;" d="M27.99,459.926H3.999c0,13.276,10.715,23.991,23.992,23.991h23.991
	C38.705,483.917,27.99,473.202,27.99,459.926z"/>
<g style="opacity:0.2;">
	<path d="M451.838,459.926h23.991c0,13.276-10.715,23.991-23.991,23.991h-23.992C441.123,483.917,451.838,473.202,451.838,459.926z"
		/>
</g>
<path style="fill:#ED5565;" d="M419.85,220.008c0,0,1.437,15.838,0,39.509c-2.242,37.506-11.754,94.688-45.664,139.789
	c-15.994,21.353-37.51,39.985-66.296,52.622v7.997H171.938v-7.997c-127.954-55.98-111.96-231.92-111.96-231.92L419.85,220.008
	L419.85,220.008z"/>
<g style="opacity:0.2;">
	<path d="M392.75,383.555h-7.998c-3.24,5.373-6.724,10.645-10.566,15.752l4.85,3.96c1.047-1.32,2.141-2.616,3.147-3.96
		C386.025,394.199,389.509,388.928,392.75,383.555z"/>
	<path d="M419.85,259.518c-0.305,5.143-0.766,10.68-1.391,16.475h7.997c0.602-5.623,1.055-10.988,1.358-15.999L419.85,259.518z"/>
</g>
<g style="opacity:0.3;">
	<path style="fill:#FFFFFF;" d="M83.97,220.008H59.979c0,0-15.994,175.94,111.96,231.92h23.991
		C67.976,395.948,83.97,220.008,83.97,220.008z"/>
</g>
<g style="opacity:0.2;">
	<path d="M395.217,220.008h23.992c0,0,15.994,175.94-111.96,231.92h-23.991C411.212,395.948,395.217,220.008,395.217,220.008z"/>
</g>
<g>
	<path style="fill:#3A3847;" d="M475.829,463.925H3.999c-2.21,0-3.999-1.789-3.999-3.999s1.788-3.999,3.999-3.999H475.83
		c2.21,0,3.999,1.789,3.999,3.999S478.039,463.925,475.829,463.925z"/>
	<path style="fill:#3A3847;" d="M171.938,455.927c-0.539,0-1.078-0.109-1.602-0.336C41.235,399.112,55.832,221.438,55.996,219.649
		c0.203-2.203,2.218-3.772,4.342-3.624c2.202,0.203,3.819,2.147,3.624,4.342c-0.156,1.734-14.213,173.738,109.578,227.898
		c2.023,0.883,2.944,3.241,2.062,5.264C174.945,455.029,173.477,455.927,171.938,455.927z"/>
	<path style="fill:#3A3847;" d="M307.89,455.927c-1.539,0-3.007-0.89-3.663-2.39c-0.883-2.022,0.031-4.381,2.054-5.271
		c25.937-11.378,47.702-28.661,64.704-51.356c32.91-43.766,42.562-98.995,44.874-137.634c1.397-23.046,0.023-38.751,0.008-38.908
		c-0.195-2.194,1.421-4.139,3.624-4.342c2.155-0.18,4.146,1.421,4.342,3.624c0.062,0.656,1.445,16.408,0.008,40.11
		c-2.374,39.724-12.363,96.602-46.46,141.952c-17.829,23.805-40.673,41.931-67.882,53.879
		C308.975,455.817,308.428,455.927,307.89,455.927z"/>
	<path style="fill:#3A3847;" d="M419.85,224.007H59.979c-2.21,0-3.999-1.789-3.999-3.999c0-2.21,1.789-3.998,3.999-3.998H419.85
		c2.21,0,3.998,1.788,3.998,3.998C423.848,222.219,422.06,224.007,419.85,224.007z"/>
	<path style="fill:#3A3847;" d="M379.863,407.944c-1.71,0-3.295-1.109-3.826-2.827c-0.641-2.108,0.547-4.35,2.655-4.998
		c71.122-21.789,116.302-70.615,124.174-107.595c1.983-9.332,2.39-22.163-6.966-30.312c-11.809-10.293-35.496-9.731-66.695,1.538
		c-2.054,0.754-4.365-0.312-5.115-2.397c-0.758-2.077,0.32-4.365,2.397-5.115c43.648-15.799,64.695-8.747,74.669-0.055
		c9.59,8.352,12.972,21.847,9.535,38.005c-8.364,39.268-55.582,90.881-129.656,113.584
		C380.645,407.89,380.246,407.944,379.863,407.944z"/>
	<path style="fill:#3A3847;" d="M395.857,387.554c-1.538,0-3.014-0.898-3.67-2.406c-0.875-2.022,0.047-4.381,2.077-5.264
		c53.918-23.452,88.272-65.18,93.225-92.529c1.187-6.567,0.476-11.526-1.953-13.611c-5.63-4.741-30.169-3.468-56.331,6.005
		c-2.046,0.75-4.365-0.312-5.115-2.397c-0.758-2.077,0.32-4.365,2.397-5.115c23.608-8.563,54.145-13.069,64.235-4.584
		c4.795,4.123,6.388,11.418,4.639,21.125c-5.459,30.13-40.837,73.622-97.91,98.449C396.936,387.444,396.389,387.554,395.857,387.554
		z"/>
	<path style="fill:#3A3847;" d="M27.99,487.916c-15.433,0-27.99-12.559-27.99-27.99c0-2.21,1.788-3.999,3.999-3.999
		s3.999,1.789,3.999,3.999c0,11.027,8.966,19.993,19.993,19.993c2.21,0,3.998,1.788,3.998,3.998
		C31.988,486.128,30.2,487.916,27.99,487.916z"/>
	<path style="fill:#3A3847;" d="M451.838,487.916c-2.211,0-3.999-1.788-3.999-3.999c0-2.21,1.788-3.998,3.999-3.998
		c11.027,0,19.992-8.966,19.992-19.993c0-2.21,1.789-3.999,3.999-3.999s3.999,1.789,3.999,3.999
		C479.828,475.357,467.27,487.916,451.838,487.916z"/>
	<path style="fill:#3A3847;" d="M451.838,487.916H27.99c-2.21,0-3.999-1.788-3.999-3.999c0-2.21,1.789-3.998,3.999-3.998h423.848
		c2.21,0,3.998,1.788,3.998,3.998C455.836,486.128,454.048,487.916,451.838,487.916z"/>
	<path style="fill:#3A3847;" d="M239.922,176.024c-1.102,0-2.195-0.453-2.983-1.335c-1.477-1.648-1.328-4.17,0.312-5.646
		c0.133-0.125,13.636-12.433,14.604-30.489c0.648-12.065-4.373-24.116-14.916-35.823c-12.043-13.386-17.744-27.42-16.947-41.711
		c1.195-21.414,16.611-35.347,17.268-35.933c1.632-1.453,4.162-1.312,5.63,0.328c1.476,1.647,1.328,4.17-0.312,5.646
		c-0.133,0.125-13.636,12.433-14.604,30.489c-0.648,12.066,4.374,24.117,14.917,35.823c12.042,13.386,17.744,27.419,16.947,41.711
		c-1.194,21.414-16.611,35.347-17.267,35.933C241.812,175.688,240.866,176.024,239.922,176.024z"/>
	<path style="fill:#3A3847;" d="M323.892,176.024c-1.234,0-2.452-0.578-3.241-1.648c-1.289-1.788-0.898-4.287,0.883-5.584
		c0.102-0.07,9.801-7.286,10.34-17.572c0.352-6.685-3.241-13.487-10.676-20.211c-9.325-8.45-13.8-17.408-13.284-26.639
		c0.78-14.12,13.104-23.18,13.628-23.554c1.78-1.289,4.271-0.89,5.576,0.89c1.288,1.789,0.897,4.288-0.883,5.584
		c-0.102,0.07-9.801,7.287-10.34,17.572c-0.352,6.685,3.24,13.487,10.676,20.211c9.324,8.45,13.8,17.408,13.284,26.639
		c-0.781,14.12-13.104,23.179-13.628,23.554C325.516,175.774,324.703,176.024,323.892,176.024z"/>
	<path style="fill:#3A3847;" d="M155.952,176.024c-1.234,0-2.452-0.578-3.241-1.648c-1.289-1.788-0.898-4.287,0.882-5.584
		c0.102-0.07,9.801-7.286,10.34-17.572c0.351-6.685-3.241-13.487-10.676-20.211c-9.325-8.45-13.799-17.408-13.284-26.639
		c0.781-14.12,13.105-23.18,13.628-23.554c1.781-1.289,4.272-0.89,5.576,0.89c1.289,1.789,0.898,4.288-0.882,5.584
		c-0.102,0.07-9.802,7.287-10.34,17.572c-0.351,6.685,3.241,13.487,10.676,20.211c9.325,8.45,13.8,17.408,13.285,26.639
		c-0.781,14.12-13.105,23.179-13.628,23.554C157.576,175.774,156.764,176.024,155.952,176.024z"/>
</g>
<g style="opacity:0.2;">
	<rect x="171.94" y="451.93" width="135.95" height="7.997"/>
</g>
<g>
</g>
<g>
</g>
<g>
</g>
<g>
</g>
<g>
</g>
<g>
</g>
<g>
</g>
<g>
</g>
<g>
</g>
<g>
</g>
<g>
</g>
<g>
</g>
<g>
</g>
<g>
</g>
<g>
</g>
</svg>
