<?xml version="1.0" encoding="iso-8859-1"?>
<!-- Generator: Adobe Illustrator 19.0.0, SVG Export Plug-In . SVG Version: 6.00 Build 0)  -->
<svg version="1.1" id="Capa_1" xmlns="http://www.w3.org/2000/svg" xmlns:xlink="http://www.w3.org/1999/xlink" x="0px" y="0px"
	 viewBox="0 0 468.293 468.293" style="enable-background:new 0 0 468.293 468.293;" xml:space="preserve">
<g>
	<path style="fill:#3A556A;" d="M424.871,9.974v19.327c0,3.153-1.543,6.052-4.033,7.986c-8.927,6.93-14.762,18.352-24.118,25.221
		c-6.019,4.449-13.272,6.879-19.515,10.954c-10.954,7.141-21.384,19.627-22.431,32.638v24.749c0.225,1.607-0.15,3.402-0.411,5.01
		c-0.262,1.608-1.084,3.178-2.468,3.963c-1.009,0.561-2.206,0.711-3.327,0.785c-2.243,0.187-4.449,0.486-6.655,0.748
		c-4.038,0.448-7.066,3.85-7.066,7.888H310.21V0h104.687C420.406,0,424.871,4.466,424.871,9.974z"/>
	<path style="fill:#3A556A;" d="M43.421,9.974v19.327c0,3.153,1.543,6.052,4.033,7.986c8.927,6.93,14.762,18.352,24.118,25.221
		c6.019,4.449,13.272,6.879,19.515,10.954c10.954,7.141,21.384,19.627,22.431,32.638v24.749c-0.225,1.607,0.15,3.402,0.411,5.01
		c0.261,1.608,1.084,3.178,2.468,3.963c1.009,0.561,2.206,0.711,3.327,0.785c2.244,0.187,4.449,0.486,6.655,0.748
		c4.038,0.448,7.066,3.85,7.066,7.888h24.637V0H53.396C47.887,0,43.421,4.466,43.421,9.974z"/>
	<path style="fill:#3A556A;" d="M424.871,169.499v19.327c0,3.153-1.543,6.052-4.033,7.986c-8.927,6.93-14.762,18.352-24.118,25.221
		c-6.019,4.449-13.272,6.879-19.515,10.954c-10.954,7.141-21.384,19.627-22.431,32.638v24.749c0.225,1.607-0.15,3.402-0.411,5.01
		c-0.262,1.608-1.084,3.178-2.468,3.963c-1.009,0.561-2.206,0.711-3.327,0.785c-2.243,0.187-4.449,0.486-6.655,0.748
		c-4.038,0.448-7.066,3.85-7.066,7.888H310.21V159.525h104.687C420.406,159.525,424.871,163.99,424.871,169.499z"/>
	<path style="fill:#3A556A;" d="M43.421,169.499v19.327c0,3.153,1.543,6.052,4.033,7.986c8.927,6.93,14.762,18.352,24.118,25.221
		c6.019,4.449,13.272,6.879,19.515,10.954c10.954,7.141,21.384,19.627,22.431,32.638v24.749c-0.225,1.607,0.15,3.402,0.411,5.01
		c0.261,1.608,1.084,3.178,2.468,3.963c1.009,0.561,2.206,0.711,3.327,0.785c2.244,0.187,4.449,0.486,6.655,0.748
		c4.038,0.448,7.066,3.85,7.066,7.888h24.637V159.525H53.396C47.887,159.525,43.421,163.99,43.421,169.499z"/>
	<path style="fill:#3A556A;" d="M424.871,329.024v19.327c0,3.153-1.543,6.052-4.033,7.986c-8.927,6.93-14.762,18.352-24.118,25.221
		c-6.019,4.449-13.272,6.879-19.515,10.954c-10.954,7.141-21.384,19.627-22.431,32.638v24.749c0.225,1.607-0.15,3.402-0.411,5.01
		c-0.262,1.608-1.084,3.178-2.468,3.963c-1.009,0.561-2.206,0.711-3.327,0.785c-2.243,0.187-4.449,0.486-6.655,0.748
		c-4.038,0.448-7.066,3.85-7.066,7.888H310.21V319.049h104.687C420.406,319.049,424.871,323.515,424.871,329.024z"/>
	<path style="fill:#3A556A;" d="M43.421,329.024v19.327c0,3.153,1.543,6.052,4.033,7.986c8.927,6.93,14.762,18.352,24.118,25.221
		c6.019,4.449,13.272,6.879,19.515,10.954c10.954,7.141,21.384,19.627,22.431,32.638v24.749c-0.225,1.607,0.15,3.402,0.411,5.01
		c0.261,1.608,1.084,3.178,2.468,3.963c1.009,0.561,2.206,0.711,3.327,0.785c2.244,0.187,4.449,0.486,6.655,0.748
		c4.038,0.448,7.066,3.85,7.066,7.888h24.637V319.049H53.396C47.887,319.049,43.421,323.515,43.421,329.024z"/>
</g>
<rect x="147.231" style="fill:#2F4859;" width="173.843" height="468.293"/>
<circle style="fill:#E56353;" cx="234.146" cy="74.621" r="57.95"/>
<circle style="fill:#FCD462;" cx="234.146" cy="234.146" r="57.95"/>
<circle style="fill:#44C4A1;" cx="234.146" cy="393.678" r="57.95"/>
<g>
</g>
<g>
</g>
<g>
</g>
<g>
</g>
<g>
</g>
<g>
</g>
<g>
</g>
<g>
</g>
<g>
</g>
<g>
</g>
<g>
</g>
<g>
</g>
<g>
</g>
<g>
</g>
<g>
</g>
</svg>
