<?xml version="1.0" encoding="iso-8859-1"?>
<!-- Generator: Adobe Illustrator 19.0.0, SVG Export Plug-In . SVG Version: 6.00 Build 0)  -->
<svg version="1.1" id="Capa_1" xmlns="http://www.w3.org/2000/svg" xmlns:xlink="http://www.w3.org/1999/xlink" x="0px" y="0px"
	 viewBox="0 0 512 512" style="enable-background:new 0 0 512 512;" xml:space="preserve">
<path style="fill:#BFE1FF;" d="M397.317,415.31c-7.8,2.1-16.202-2.399-18.302-10.499l-23.401-87.005
	c-2.1-8.099,2.699-16.2,10.8-18.301c7.8-2.1,16.2,2.701,18.301,10.501l23.402,87.003
	C410.217,405.111,405.415,413.212,397.317,415.31z"/>
<path style="fill:#9DC6FF;" d="M408.117,397.01c2.1,8.101-2.701,16.202-10.8,18.301l-30.902-115.805
	c7.8-2.1,16.2,2.701,18.301,10.501L408.117,397.01z"/>
<path style="fill:#FF3F2E;" d="M374.215,328.308c-70.204,18.901-141.905-27.6-152.707-99.604c-2.098-14.102-4.199-27.302-9-59.702
	l25.202-30.001h178.207l41.402,30.001C480.72,234.104,445.018,309.407,374.215,328.308z"/>
<path style="fill:#FF2121;" d="M374.215,328.308l-51.002-189.308h92.704l41.402,30.001
	C480.72,234.104,445.018,309.407,374.215,328.308z"/>
<path style="fill:#CDEBFC;" d="M457.32,169.002H212.509c-9.6-60.603-2.1-14.102-13.8-90.304c-1.201-7.5,3.3-14.701,10.8-16.801
	l87.003-23.102l87.004-23.4c7.2-2.1,15.001,1.8,17.702,9c11.999,30.001,48.602,124.504,55.201,141.307
	C456.719,166.901,457.019,167.8,457.32,169.002z"/>
<g>
	<path style="fill:#BFE1FF;" d="M457.32,169.002H331.314L296.511,38.796l87.005-23.4c7.2-2.1,15.001,1.8,17.702,9
		c11.999,30.001,48.602,124.504,55.201,141.307C456.719,166.901,457.019,167.8,457.32,169.002z"/>
	<path style="fill:#BFE1FF;" d="M157.605,317.806l-23.4,87.005c-2.1,8.101-10.499,12.6-18.301,10.499
		c-8.101-2.098-12.901-10.199-10.801-18.301l23.402-87.003c2.1-7.8,10.499-12.602,18.301-10.501
		C154.906,301.606,159.705,309.708,157.605,317.806z"/>
</g>
<path style="fill:#9DC6FF;" d="M157.605,317.806l-23.4,87.005c-2.1,8.101-10.499,12.6-18.301,10.499l30.9-115.805
	C154.906,301.606,159.705,309.708,157.605,317.806z"/>
<path style="fill:#CDEBFC;" d="M314.513,78.697c-3.3,21.6-6.301,41.102-9,60.302l-34.502,30.001H85.903L67.303,139
	c15.001-38.703,28.201-72.903,44.702-114.605c2.699-7.2,10.499-11.1,17.7-9l87.005,23.401l87.005,23.102
	C311.214,63.998,315.713,71.197,314.513,78.697z"/>
<path style="fill:#BFE1FF;" d="M314.513,78.697c-3.3,21.6-6.301,41.102-9,60.302l-34.502,30.001h-89.103l34.801-130.205
	l87.005,23.102C311.214,63.998,315.713,71.197,314.513,78.697z"/>
<path style="fill:#FF3F2E;" d="M305.513,139.001c-8.701,56.102-11.1,71.703-13.802,89.704
	c-10.8,72.004-82.503,118.505-152.707,99.604c-72.002-19.202-108.003-96.906-82.202-162.607c3.6-9.302,6.901-18.002,10.501-26.701
	L305.513,139.001L305.513,139.001z"/>
<path style="fill:#FF2121;" d="M305.513,139.001c-8.701,56.102-11.1,71.703-13.802,89.704
	c-10.8,72.004-82.503,118.505-152.707,99.604l51.002-189.308L305.513,139.001L305.513,139.001z"/>
<path style="fill:#CDEBFC;" d="M123.706,386.511h-0.3c-41.702-11.1-85.926,0.899-119.527,39.002c-7.5,8.399-3.6,21.6,7.2,24.601
	l89.225,23.102l87.005,23.4c10.499,2.999,20.701-6.599,18.601-17.402C195.708,429.412,165.406,397.61,123.706,386.511z"/>
<path style="fill:#BFE1FF;" d="M205.908,479.214c2.1,10.801-8.101,20.401-18.601,17.402l-87.004-23.401l23.102-86.704h0.3
	C165.406,397.61,195.708,429.412,205.908,479.214z"/>
<path style="fill:#CDEBFC;" d="M508.121,425.511c-33.601-38.103-76.604-50.101-118.304-39.002h-0.3
	c-41.702,11.1-72.004,42.902-82.203,92.703c-2.1,10.801,8.099,20.401,18.601,17.402l87.003-23.4l88.005-23.102
	C511.721,447.111,515.621,433.911,508.121,425.511z"/>
<path style="fill:#BFE1FF;" d="M500.92,450.112l-88.005,23.102l-23.1-86.704c41.701-11.1,84.702,0.899,118.304,39.002
	C515.621,433.911,511.721,447.111,500.92,450.112z"/>
<g>
</g>
<g>
</g>
<g>
</g>
<g>
</g>
<g>
</g>
<g>
</g>
<g>
</g>
<g>
</g>
<g>
</g>
<g>
</g>
<g>
</g>
<g>
</g>
<g>
</g>
<g>
</g>
<g>
</g>
</svg>
